<?xml version="1.0" encoding="UTF-8"?>
<svg id="Artwork" xmlns="http://www.w3.org/2000/svg" viewBox="0 0 1220 221">
  <defs>
    <style>
      .cls-1 {
        fill: #080225;
      }

      .cls-1, .cls-2 {
        stroke-width: 0px;
      }

      .cls-2 {
        fill: #7233f7;
      }
    </style>
  </defs>
  <g>
    <path class="cls-1" d="M328.28,86.59h11.07v4.41c3.73-4.52,8.14-5.65,11.76-5.65,4.97,0,9.6,2.38,12.32,7.01,3.96-5.65,9.94-7.01,14.12-7.01,5.77,0,10.85,2.72,13.56,7.46.9,1.59,2.49,5.08,2.49,11.98v29.39h-11.07v-26.22c0-5.31-.57-7.46-1.02-8.48-.68-1.81-2.38-4.18-6.33-4.18-2.71,0-5.08,1.47-6.55,3.5-1.92,2.72-2.15,6.78-2.15,10.85v24.52h-11.07v-26.22c0-5.31-.57-7.46-1.01-8.48-.68-1.81-2.37-4.18-6.33-4.18-2.71,0-5.08,1.47-6.55,3.5-1.92,2.72-2.15,6.78-2.15,10.84v24.52h-11.07v-47.58ZM289.94,86.59h11.07v4.29c1.24-1.47,3.05-3.05,4.63-3.96,2.15-1.24,4.29-1.59,6.78-1.59,2.71,0,5.65.46,8.7,2.26l-4.52,10.06c-2.49-1.59-4.52-1.69-5.65-1.69-2.38,0-4.75.34-6.9,2.6-3.05,3.28-3.05,7.8-3.05,10.96v24.64h-11.07v-47.58h0ZM239.68,110.55c0,8.25,5.19,15.15,13.22,15.15,7.01,0,13.45-5.08,13.45-15.04s-6.44-15.37-13.45-15.37c-8.03,0-13.22,6.78-13.22,15.26M265.68,86.59h11.07v47.58h-11.07v-4.97c-4.86,5.65-10.85,6.44-14.24,6.44-14.69,0-23.06-12.2-23.06-25.31,0-15.48,10.62-24.98,23.17-24.98,3.5,0,9.6.9,14.12,6.78v-5.54h0Z"/>
    <g>
      <path class="cls-1" d="M110.61,196.87c-47.62,0-86.37-38.74-86.37-86.37S62.98,24.13,110.61,24.13s86.37,38.74,86.37,86.37-38.74,86.37-86.37,86.37ZM110.61,29.13c-44.87,0-81.37,36.5-81.37,81.37s36.5,81.37,81.37,81.37,81.37-36.5,81.37-81.37S155.47,29.13,110.61,29.13Z"/>
      <g>
        <path class="cls-1" d="M70.38,134.3c-.64,0-1.28-.24-1.77-.73l-18.35-18.35c-1.44-1.44-2.23-3.35-2.23-5.38s.79-3.94,2.23-5.38l18.32-18.32c.98-.98,2.56-.98,3.54,0,.98.98.98,2.56,0,3.54l-18.32,18.32c-.49.49-.76,1.15-.76,1.84s.27,1.35.76,1.84l18.35,18.35c.98.98.98,2.56,0,3.54-.49.49-1.13.73-1.77.73Z"/>
        <path class="cls-1" d="M150.83,134.3c-.64,0-1.28-.24-1.77-.73-.98-.98-.98-2.56,0-3.54l18.35-18.35c.49-.49.76-1.15.76-1.84s-.27-1.35-.76-1.84l-18.32-18.32c-.98-.98-.98-2.56,0-3.54.98-.98,2.56-.98,3.54,0l18.32,18.32c1.44,1.44,2.23,3.35,2.23,5.38s-.79,3.94-2.23,5.38l-18.35,18.35c-.49.49-1.13.73-1.77.73Z"/>
        <path class="cls-1" d="M92.31,134.3c-.57,0-1.14-.19-1.61-.59-1.05-.89-1.18-2.47-.29-3.52l37.19-43.9c.89-1.05,2.47-1.18,3.52-.29s1.18,2.47.29,3.52l-37.19,43.91c-.49.58-1.2.88-1.91.88Z"/>
      </g>
    </g>
  </g>
  <g>
    <path class="cls-2" d="M470.22,68.95v65.66h-4.13l-.75-10.88c-3,6.66-9.19,11.44-18.1,11.44-13.04,0-22.42-9.38-22.42-24.39s9.38-24.29,22.42-24.29c8.91,0,15.29,4.5,18.2,11.26v-28.8h4.78ZM429.71,110.78c0,11.82,7.32,20.07,17.92,20.07s17.92-8.25,17.92-19.98-7.32-20.17-17.92-20.17-17.92,8.35-17.92,20.07Z"/>
    <path class="cls-2" d="M479.7,110.5c0-14.07,8.91-24.01,21.95-24.01s21.48,8.25,21.95,22.42l-.09,1.97h-38.83v.84c.19,11.07,6.85,19.14,17.45,19.14,7.79,0,14.07-4.6,15.95-12.01h4.88c-2.06,9.57-10.04,16.32-20.45,16.32-13.51,0-22.79-9.76-22.79-24.67ZM501.74,90.71c-8.72,0-15.95,6.47-16.7,16.13h33.39c-.75-10.41-7.41-16.13-16.7-16.13Z"/>
    <path class="cls-2" d="M531.48,87.05l16.42,42.02,16.32-42.02h4.97l-18.57,47.56h-5.72l-18.57-47.56h5.16Z"/>
    <path class="cls-2" d="M572,110.5c0-14.07,8.91-24.01,21.95-24.01s21.48,8.25,21.95,22.42l-.09,1.97h-38.83v.84c.19,11.07,6.85,19.14,17.45,19.14,7.79,0,14.07-4.6,15.95-12.01h4.88c-2.06,9.57-10.04,16.32-20.45,16.32-13.51,0-22.79-9.76-22.79-24.67ZM594.04,90.71c-8.72,0-15.95,6.47-16.7,16.13h33.39c-.75-10.41-7.41-16.13-16.7-16.13Z"/>
    <path class="cls-2" d="M630.16,68.95v65.66h-4.78v-65.66h4.78Z"/>
    <path class="cls-2" d="M639.63,110.78c0-14.35,9.38-24.3,22.79-24.3s22.89,9.94,22.89,24.3-9.47,24.39-22.89,24.39-22.79-9.94-22.79-24.39ZM680.34,110.78c0-11.73-7.32-20.07-17.92-20.07s-17.92,8.35-17.92,20.07,7.32,20.07,17.92,20.07,17.92-8.25,17.92-20.07Z"/>
    <path class="cls-2" d="M740.19,110.78c0,14.44-9.38,24.39-22.42,24.39-9,0-15.48-4.6-18.2-11.54v29.74h-4.78v-66.32h4.13l.75,10.88c3-6.66,9.19-11.44,18.1-11.44,13.04,0,22.42,9.38,22.42,24.3ZM699.48,110.69c0,11.91,7.32,20.17,17.92,20.17s17.92-8.25,17.92-20.07-7.32-20.07-17.92-20.07-17.92,8.35-17.92,19.98Z"/>
    <path class="cls-2" d="M747.88,110.5c0-14.07,8.91-24.01,21.95-24.01s21.48,8.25,21.95,22.42l-.09,1.97h-38.83v.84c.19,11.07,6.85,19.14,17.45,19.14,7.79,0,14.07-4.6,15.95-12.01h4.88c-2.06,9.57-10.04,16.32-20.45,16.32-13.51,0-22.79-9.76-22.79-24.67ZM769.92,90.71c-8.72,0-15.95,6.47-16.7,16.13h33.39c-.75-10.41-7.41-16.13-16.7-16.13Z"/>
    <path class="cls-2" d="M805.38,87.05l.75,9.47c1.97-5.25,5.72-9.47,14.54-9.47h2.53v4.6h-3.47c-11.16,0-13.69,9.19-13.69,18.85v24.11h-4.78v-47.56h4.13Z"/>
    <g>
      <path class="cls-2" d="M855.33,67.6h4.86v66.67h-4.86v-66.67Z"/>
      <path class="cls-2" d="M892.57,85.41c4.38,0,8.16,1.03,11.33,3.1,3.17,2.06,5.52,4.84,7.05,8.33l.76-10.86h4.19v48.29h-4.19l-.76-11.14c-1.59,3.56-3.95,6.4-7.1,8.52-3.14,2.13-6.91,3.19-11.29,3.19-6.73,0-12.21-2.25-16.43-6.76-4.22-4.51-6.33-10.51-6.33-18s2.13-13.16,6.38-17.76c4.25-4.6,9.71-6.91,16.38-6.91ZM892.95,89.7c-5.33,0-9.7,1.9-13.1,5.71-3.4,3.81-5.1,8.7-5.1,14.67s1.68,10.94,5.05,14.71c3.37,3.78,7.75,5.67,13.14,5.67s9.78-1.89,13.14-5.67c3.37-3.78,5.05-8.65,5.05-14.62s-1.68-10.95-5.05-14.76c-3.37-3.81-7.75-5.71-13.14-5.71Z"/>
      <path class="cls-2" d="M927.33,67.6h4.86v29.62c1.59-3.56,3.97-6.41,7.14-8.57,3.17-2.16,6.95-3.24,11.33-3.24,6.73,0,12.21,2.24,16.43,6.71,4.22,4.48,6.33,10.46,6.33,17.95s-2.13,13.25-6.38,17.86c-4.25,4.6-9.71,6.91-16.38,6.91-4.45,0-8.26-1.03-11.43-3.1-3.18-2.06-5.49-4.87-6.95-8.43l-.76,10.95h-4.19v-66.67ZM963.38,95.41c-3.4-3.81-7.76-5.71-13.1-5.71s-9.7,1.9-13.1,5.71c-3.4,3.81-5.1,8.67-5.1,14.57s1.68,10.95,5.05,14.76c3.37,3.81,7.75,5.71,13.14,5.71s9.78-1.89,13.14-5.67c3.37-3.78,5.05-8.68,5.05-14.71s-1.7-10.86-5.1-14.67Z"/>
      <path class="cls-2" d="M1001.34,134.85c-6.16,0-11.08-1.33-14.76-4-3.68-2.67-5.62-6.48-5.81-11.43h4.95c.19,3.49,1.68,6.24,4.48,8.24,2.79,2,6.51,3,11.14,3,4,0,7.32-.86,9.95-2.57,2.63-1.71,3.95-3.97,3.95-6.76,0-1.4-.27-2.6-.81-3.62-.54-1.01-1.18-1.82-1.91-2.43-.73-.6-1.84-1.13-3.33-1.57-1.49-.44-2.79-.76-3.9-.95-1.11-.19-2.68-.44-4.71-.76-2.35-.32-4.29-.62-5.81-.9-1.52-.29-3.21-.75-5.05-1.38-1.84-.63-3.27-1.38-4.29-2.24-1.02-.86-1.89-1.98-2.62-3.38-.73-1.4-1.1-3.05-1.1-4.95,0-4.13,1.71-7.44,5.14-9.95,3.43-2.51,7.87-3.76,13.33-3.76s9.81,1.22,13.24,3.67c3.43,2.45,5.37,5.95,5.81,10.52h-4.95c-.44-3.11-1.94-5.56-4.48-7.33-2.54-1.78-5.75-2.67-9.62-2.67-4.13,0-7.43.84-9.91,2.52-2.48,1.68-3.71,3.89-3.71,6.62,0,1.33.29,2.48.86,3.43.57.95,1.21,1.7,1.91,2.24.7.54,1.79,1.03,3.29,1.48,1.49.44,2.71.75,3.67.9.95.16,2.44.37,4.48.62,2.41.32,4.43.64,6.05.95,1.62.32,3.35.83,5.19,1.52,1.84.7,3.29,1.49,4.33,2.38,1.05.89,1.94,2.08,2.67,3.57.73,1.49,1.1,3.22,1.1,5.19,0,4.19-1.79,7.54-5.38,10.05-3.59,2.51-8.05,3.76-13.38,3.76Z"/>
    </g>
  </g>
</svg>